<mxfile host="app.diagrams.net" modified="2025-04-14T15:59:35.000Z" agent="Mozilla/5.0" version="22.1.18" etag="your-etag">
  <diagram id="code-graph-search-architecture" name="Code Graph Search Architecture">
    <mxGraphModel dx="1422" dy="762" grid="1" gridSize="10" guides="1" tooltips="1" connect="1" arrows="1" fold="1" page="1" pageScale="1" pageWidth="1100" pageHeight="850" math="0" shadow="0">
      <root>
        <mxCell id="0" />
        <mxCell id="1" parent="0" />
        
        <!-- Client Section -->
        <mxCell id="client-section" value="Client" style="fillColor=#EFF0F3;strokeColor=#D0D0D0;dashed=1;verticalAlign=top;fontStyle=0;fontColor=#232F3E;whiteSpace=wrap;html=1;" vertex="1" parent="1">
          <mxGeometry x="40" y="40" width="160" height="200" as="geometry" />
        </mxCell>
        <mxCell id="user" value="" style="sketch=0;outlineConnect=0;fontColor=#232F3E;gradientColor=none;fillColor=#232F3D;strokeColor=none;dashed=0;verticalLabelPosition=bottom;verticalAlign=top;align=center;html=1;fontSize=12;fontStyle=0;aspect=fixed;pointerEvents=1;shape=mxgraph.aws4.user;" vertex="1" parent="1">
          <mxGeometry x="90" y="80" width="60" height="60" as="geometry" />
        </mxCell>
        <mxCell id="cloudfront" value="CloudFront" style="sketch=0;points=[[0,0,0],[0.25,0,0],[0.5,0,0],[0.75,0,0],[1,0,0],[0,1,0],[0.25,1,0],[0.5,1,0],[0.75,1,0],[1,1,0],[0,0.25,0],[0,0.5,0],[0,0.75,0],[1,0.25,0],[1,0.5,0],[1,0.75,0]];outlineConnect=0;fontColor=#232F3E;fillColor=#8C4FFF;strokeColor=#ffffff;dashed=0;verticalLabelPosition=bottom;verticalAlign=top;align=center;html=1;fontSize=12;fontStyle=0;aspect=fixed;shape=mxgraph.aws4.resourceIcon;resIcon=mxgraph.aws4.cloudfront;" vertex="1" parent="1">
          <mxGeometry x="90" y="160" width="60" height="60" as="geometry" />
        </mxCell>
        
        <!-- API Gateway Section -->
        <mxCell id="api-section" value="API Gateway" style="fillColor=#EFF0F3;strokeColor=#D0D0D0;dashed=1;verticalAlign=top;fontStyle=0;fontColor=#232F3E;whiteSpace=wrap;html=1;" vertex="1" parent="1">
          <mxGeometry x="240" y="40" width="160" height="200" as="geometry" />
        </mxCell>
        <mxCell id="api-gateway" value="API Gateway" style="sketch=0;points=[[0,0,0],[0.25,0,0],[0.5,0,0],[0.75,0,0],[1,0,0],[0,1,0],[0.25,1,0],[0.5,1,0],[0.75,1,0],[1,1,0],[0,0.25,0],[0,0.5,0],[0,0.75,0],[1,0.25,0],[1,0.5,0],[1,0.75,0]];outlineConnect=0;fontColor=#232F3E;fillColor=#8C4FFF;strokeColor=#ffffff;dashed=0;verticalLabelPosition=bottom;verticalAlign=top;align=center;html=1;fontSize=12;fontStyle=0;aspect=fixed;shape=mxgraph.aws4.resourceIcon;resIcon=mxgraph.aws4.api_gateway;" vertex="1" parent="1">
          <mxGeometry x="290" y="120" width="60" height="60" as="geometry" />
        </mxCell>
        
        <!-- Lambda Functions Section -->
        <mxCell id="lambda-section" value="Lambda Functions" style="fillColor=#EFF0F3;strokeColor=#D0D0D0;dashed=1;verticalAlign=top;fontStyle=0;fontColor=#232F3E;whiteSpace=wrap;html=1;" vertex="1" parent="1">
          <mxGeometry x="440" y="40" width="200" height="400" as="geometry" />
        </mxCell>
        <mxCell id="code-downloader" value="Code Downloader" style="sketch=0;points=[[0,0,0],[0.25,0,0],[0.5,0,0],[0.75,0,0],[1,0,0],[0,1,0],[0.25,1,0],[0.5,1,0],[0.75,1,0],[1,1,0],[0,0.25,0],[0,0.5,0],[0,0.75,0],[1,0.25,0],[1,0.5,0],[1,0.75,0]];outlineConnect=0;fontColor=#232F3E;fillColor=#ED7100;strokeColor=#ffffff;dashed=0;verticalLabelPosition=bottom;verticalAlign=top;align=center;html=1;fontSize=12;fontStyle=0;aspect=fixed;shape=mxgraph.aws4.resourceIcon;resIcon=mxgraph.aws4.lambda;" vertex="1" parent="1">
          <mxGeometry x="510" y="80" width="60" height="60" as="geometry" />
        </mxCell>
        <mxCell id="code-reader" value="Code Reader" style="sketch=0;points=[[0,0,0],[0.25,0,0],[0.5,0,0],[0.75,0,0],[1,0,0],[0,1,0],[0.25,1,0],[0.5,1,0],[0.75,1,0],[1,1,0],[0,0.25,0],[0,0.5,0],[0,0.75,0],[1,0.25,0],[1,0.5,0],[1,0.75,0]];outlineConnect=0;fontColor=#232F3E;fillColor=#ED7100;strokeColor=#ffffff;dashed=0;verticalLabelPosition=bottom;verticalAlign=top;align=center;html=1;fontSize=12;fontStyle=0;aspect=fixed;shape=mxgraph.aws4.resourceIcon;resIcon=mxgraph.aws4.lambda;" vertex="1" parent="1">
          <mxGeometry x="510" y="160" width="60" height="60" as="geometry" />
        </mxCell>
        <mxCell id="code-summarizer" value="Code Summarizer" style="sketch=0;points=[[0,0,0],[0.25,0,0],[0.5,0,0],[0.75,0,0],[1,0,0],[0,1,0],[0.25,1,0],[0.5,1,0],[0.75,1,0],[1,1,0],[0,0.25,0],[0,0.5,0],[0,0.75,0],[1,0.25,0],[1,0.5,0],[1,0.75,0]];outlineConnect=0;fontColor=#232F3E;fillColor=#ED7100;strokeColor=#ffffff;dashed=0;verticalLabelPosition=bottom;verticalAlign=top;align=center;html=1;fontSize=12;fontStyle=0;aspect=fixed;shape=mxgraph.aws4.resourceIcon;resIcon=mxgraph.aws4.lambda;" vertex="1" parent="1">
          <mxGeometry x="510" y="240" width="60" height="60" as="geometry" />
        </mxCell>
        <mxCell id="search-code-graph" value="Search Code Graph" style="sketch=0;points=[[0,0,0],[0.25,0,0],[0.5,0,0],[0.75,0,0],[1,0,0],[0,1,0],[0.25,1,0],[0.5,1,0],[0.75,1,0],[1,1,0],[0,0.25,0],[0,0.5,0],[0,0.75,0],[1,0.25,0],[1,0.5,0],[1,0.75,0]];outlineConnect=0;fontColor=#232F3E;fillColor=#ED7100;strokeColor=#ffffff;dashed=0;verticalLabelPosition=bottom;verticalAlign=top;align=center;html=1;fontSize=12;fontStyle=0;aspect=fixed;shape=mxgraph.aws4.resourceIcon;resIcon=mxgraph.aws4.lambda;" vertex="1" parent="1">
          <mxGeometry x="510" y="320" width="60" height="60" as="geometry" />
        </mxCell>
        
        <!-- SQS Section -->
        <mxCell id="sqs-section" value="SQS Queues" style="fillColor=#EFF0F3;strokeColor=#D0D0D0;dashed=1;verticalAlign=top;fontStyle=0;fontColor=#232F3E;whiteSpace=wrap;html=1;" vertex="1" parent="1">
          <mxGeometry x="680" y="40" width="160" height="200" as="geometry" />
        </mxCell>
        <mxCell id="code-download-queue" value="Code Download Queue" style="sketch=0;points=[[0,0,0],[0.25,0,0],[0.5,0,0],[0.75,0,0],[1,0,0],[0,1,0],[0.25,1,0],[0.5,1,0],[0.75,1,0],[1,1,0],[0,0.25,0],[0,0.5,0],[0,0.75,0],[1,0.25,0],[1,0.5,0],[1,0.75,0]];outlineConnect=0;fontColor=#232F3E;fillColor=#E7157B;strokeColor=#ffffff;dashed=0;verticalLabelPosition=bottom;verticalAlign=top;align=center;html=1;fontSize=12;fontStyle=0;aspect=fixed;shape=mxgraph.aws4.resourceIcon;resIcon=mxgraph.aws4.sqs;" vertex="1" parent="1">
          <mxGeometry x="730" y="80" width="60" height="60" as="geometry" />
        </mxCell>
        <mxCell id="code-reader-queue" value="Code Reader Queue" style="sketch=0;points=[[0,0,0],[0.25,0,0],[0.5,0,0],[0.75,0,0],[1,0,0],[0,1,0],[0.25,1,0],[0.5,1,0],[0.75,1,0],[1,1,0],[0,0.25,0],[0,0.5,0],[0,0.75,0],[1,0.25,0],[1,0.5,0],[1,0.75,0]];outlineConnect=0;fontColor=#232F3E;fillColor=#E7157B;strokeColor=#ffffff;dashed=0;verticalLabelPosition=bottom;verticalAlign=top;align=center;html=1;fontSize=12;fontStyle=0;aspect=fixed;shape=mxgraph.aws4.resourceIcon;resIcon=mxgraph.aws4.sqs;" vertex="1" parent="1">
          <mxGeometry x="730" y="160" width="60" height="60" as="geometry" />
        </mxCell>
        
        <!-- Storage Section -->
        <mxCell id="storage-section" value="Storage &amp; Database" style="fillColor=#EFF0F3;strokeColor=#D0D0D0;dashed=1;verticalAlign=top;fontStyle=0;fontColor=#232F3E;whiteSpace=wrap;html=1;" vertex="1" parent="1">
          <mxGeometry x="880" y="40" width="160" height="400" as="geometry" />
        </mxCell>
        <mxCell id="s3-bucket" value="S3 Buckets" style="sketch=0;points=[[0,0,0],[0.25,0,0],[0.5,0,0],[0.75,0,0],[1,0,0],[0,1,0],[0.25,1,0],[0.5,1,0],[0.75,1,0],[1,1,0],[0,0.25,0],[0,0.5,0],[0,0.75,0],[1,0.25,0],[1,0.5,0],[1,0.75,0]];outlineConnect=0;fontColor=#232F3E;fillColor=#7AA116;strokeColor=#ffffff;dashed=0;verticalLabelPosition=bottom;verticalAlign=top;align=center;html=1;fontSize=12;fontStyle=0;aspect=fixed;shape=mxgraph.aws4.resourceIcon;resIcon=mxgraph.aws4.s3;" vertex="1" parent="1">
          <mxGeometry x="930" y="80" width="60" height="60" as="geometry" />
        </mxCell>
        <mxCell id="dynamodb" value="DynamoDB" style="sketch=0;points=[[0,0,0],[0.25,0,0],[0.5,0,0],[0.75,0,0],[1,0,0],[0,1,0],[0.25,1,0],[0.5,1,0],[0.75,1,0],[1,1,0],[0,0.25,0],[0,0.5,0],[0,0.75,0],[1,0.25,0],[1,0.5,0],[1,0.75,0]];outlineConnect=0;fontColor=#232F3E;fillColor=#C925D1;strokeColor=#ffffff;dashed=0;verticalLabelPosition=bottom;verticalAlign=top;align=center;html=1;fontSize=12;fontStyle=0;aspect=fixed;shape=mxgraph.aws4.resourceIcon;resIcon=mxgraph.aws4.dynamodb;" vertex="1" parent="1">
          <mxGeometry x="930" y="160" width="60" height="60" as="geometry" />
        </mxCell>
        <mxCell id="neptune" value="Neptune" style="sketch=0;points=[[0,0,0],[0.25,0,0],[0.5,0,0],[0.75,0,0],[1,0,0],[0,1,0],[0.25,1,0],[0.5,1,0],[0.75,1,0],[1,1,0],[0,0.25,0],[0,0.5,0],[0,0.75,0],[1,0.25,0],[1,0.5,0],[1,0.75,0]];outlineConnect=0;fontColor=#232F3E;fillColor=#C925D1;strokeColor=#ffffff;dashed=0;verticalLabelPosition=bottom;verticalAlign=top;align=center;html=1;fontSize=12;fontStyle=0;aspect=fixed;shape=mxgraph.aws4.resourceIcon;resIcon=mxgraph.aws4.neptune;" vertex="1" parent="1">
          <mxGeometry x="930" y="240" width="60" height="60" as="geometry" />
        </mxCell>
        <mxCell id="opensearch" value="OpenSearch" style="sketch=0;points=[[0,0,0],[0.25,0,0],[0.5,0,0],[0.75,0,0],[1,0,0],[0,1,0],[0.25,1,0],[0.5,1,0],[0.75,1,0],[1,1,0],[0,0.25,0],[0,0.5,0],[0,0.75,0],[1,0.25,0],[1,0.5,0],[1,0.75,0]];outlineConnect=0;fontColor=#232F3E;fillColor=#C925D1;strokeColor=#ffffff;dashed=0;verticalLabelPosition=bottom;verticalAlign=top;align=center;html=1;fontSize=12;fontStyle=0;aspect=fixed;shape=mxgraph.aws4.resourceIcon;resIcon=mxgraph.aws4.elasticsearch_service;" vertex="1" parent="1">
          <mxGeometry x="930" y="320" width="60" height="60" as="geometry" />
        </mxCell>
        
        <!-- VPC Container -->
        <mxCell id="vpc" value="VPC" style="points=[[0,0],[0.25,0],[0.5,0],[0.75,0],[1,0],[1,0.25],[1,0.5],[1,0.75],[1,1],[0.75,1],[0.5,1],[0.25,1],[0,1],[0,0.75],[0,0.5],[0,0.25]];outlineConnect=0;gradientColor=none;html=1;whiteSpace=wrap;fontSize=12;fontStyle=0;container=1;pointerEvents=0;collapsible=0;recursiveResize=0;shape=mxgraph.aws4.group;grIcon=mxgraph.aws4.group_vpc;strokeColor=#248814;fillColor=none;verticalAlign=top;align=left;spacingLeft=30;fontColor=#AAB7B8;dashed=0;" vertex="1" parent="1">
          <mxGeometry x="420" y="20" width="640" height="440" as="geometry" />
        </mxCell>
        
        <!-- Connections -->
        <mxCell id="conn1" value="" style="edgeStyle=orthogonalEdgeStyle;rounded=0;orthogonalLoop=1;jettySize=auto;html=1;" edge="1" parent="1" source="user" target="cloudfront">
          <mxGeometry relative="1" as="geometry" />
        </mxCell>
        <mxCell id="conn2" value="" style="edgeStyle=orthogonalEdgeStyle;rounded=0;orthogonalLoop=1;jettySize=auto;html=1;" edge="1" parent="1" source="cloudfront" target="api-gateway">
          <mxGeometry relative="1" as="geometry">
            <Array as="points">
              <mxPoint x="200" y="190" />
              <mxPoint x="200" y="150" />
            </Array>
          </mxGeometry>
        </mxCell>
        <mxCell id="conn3" value="" style="edgeStyle=orthogonalEdgeStyle;rounded=0;orthogonalLoop=1;jettySize=auto;html=1;" edge="1" parent="1" source="api-gateway" target="code-downloader">
          <mxGeometry relative="1" as="geometry">
            <Array as="points">
              <mxPoint x="400" y="150" />
              <mxPoint x="400" y="110" />
            </Array>
          </mxGeometry>
        </mxCell>
        <mxCell id="conn4" value="" style="edgeStyle=orthogonalEdgeStyle;rounded=0;orthogonalLoop=1;jettySize=auto;html=1;" edge="1" parent="1" source="api-gateway" target="search-code-graph">
          <mxGeometry relative="1" as="geometry">
            <Array as="points">
              <mxPoint x="400" y="150" />
              <mxPoint x="400" y="350" />
            </Array>
          </mxGeometry>
        </mxCell>
        <mxCell id="conn5" value="" style="edgeStyle=orthogonalEdgeStyle;rounded=0;orthogonalLoop=1;jettySize=auto;html=1;" edge="1" parent="1" source="code-downloader" target="code-download-queue">
          <mxGeometry relative="1" as="geometry" />
        </mxCell>
        <mxCell id="conn6" value="" style="edgeStyle=orthogonalEdgeStyle;rounded=0;orthogonalLoop=1;jettySize=auto;html=1;" edge="1" parent="1" source="code-download-queue" target="code-reader">
          <mxGeometry relative="1" as="geometry">
            <Array as="points">
              <mxPoint x="650" y="110" />
              <mxPoint x="650" y="190" />
            </Array>
          </mxGeometry>
        </mxCell>
        <mxCell id="conn7" value="" style="edgeStyle=orthogonalEdgeStyle;rounded=0;orthogonalLoop=1;jettySize=auto;html=1;" edge="1" parent="1" source="code-reader" target="code-reader-queue">
          <mxGeometry relative="1" as="geometry" />
        </mxCell>
        <mxCell id="conn8" value="" style="edgeStyle=orthogonalEdgeStyle;rounded=0;orthogonalLoop=1;jettySize=auto;html=1;" edge="1" parent="1" source="code-reader-queue" target="code-summarizer">
          <mxGeometry relative="1" as="geometry">
            <Array as="points">
              <mxPoint x="650" y="190" />
              <mxPoint x="650" y="270" />
            </Array>
          </mxGeometry>
        </mxCell>
        <mxCell id="conn9" value="" style="edgeStyle=orthogonalEdgeStyle;rounded=0;orthogonalLoop=1;jettySize=auto;html=1;" edge="1" parent="1" source="code-downloader" target="s3-bucket">
          <mxGeometry relative="1" as="geometry">
            <Array as="points">
              <mxPoint x="540" y="60" />
              <mxPoint x="960" y="60" />
            </Array>
          </mxGeometry>
        </mxCell>
        <mxCell id="conn10" value="" style="edgeStyle=orthogonalEdgeStyle;rounded=0;orthogonalLoop=1;jettySize=auto;html=1;" edge="1" parent="1" source="code-reader" target="s3-bucket">
          <mxGeometry relative="1" as="geometry">
            <Array as="points">
              <mxPoint x="840" y="190" />
              <mxPoint x="840" y="110" />
            </Array>
          </mxGeometry>
        </mxCell>
        <mxCell id="conn11" value="" style="edgeStyle=orthogonalEdgeStyle;rounded=0;orthogonalLoop=1;jettySize=auto;html=1;" edge="1" parent="1" source="code-summarizer" target="neptune">
          <mxGeometry relative="1" as="geometry">
            <Array as="points">
              <mxPoint x="840" y="270" />
              <mxPoint x="840" y="270" />
            </Array>
          </mxGeometry>
        </mxCell>
        <mxCell id="conn12" value="" style="edgeStyle=orthogonalEdgeStyle;rounded=0;orthogonalLoop=1;jettySize=auto;html=1;" edge="1" parent="1" source="code-summarizer" target="opensearch">
          <mxGeometry relative="1" as="geometry">
            <Array as="points">
              <mxPoint x="840" y="270" />
              <mxPoint x="840" y="350" />
            </Array>
          </mxGeometry>
        </mxCell>
        <mxCell id="conn13" value="" style="edgeStyle=orthogonalEdgeStyle;rounded=0;orthogonalLoop=1;jettySize=auto;html=1;" edge="1" parent="1" source="search-code-graph" target="neptune">
          <mxGeometry relative="1" as="geometry">
            <Array as="points">
              <mxPoint x="840" y="350" />
              <mxPoint x="840" y="270" />
            </Array>
          </mxGeometry>
        </mxCell>
        <mxCell id="conn14" value="" style="edgeStyle=orthogonalEdgeStyle;rounded=0;orthogonalLoop=1;jettySize=auto;html=1;" edge="1" parent="1" source="search-code-graph" target="opensearch">
          <mxGeometry relative="1" as="geometry">
            <Array as="points">
              <mxPoint x="840" y="350" />
              <mxPoint x="840" y="350" />
            </Array>
          </mxGeometry>
        </mxCell>
        <mxCell id="conn15" value="" style="edgeStyle=orthogonalEdgeStyle;rounded=0;orthogonalLoop=1;jettySize=auto;html=1;" edge="1" parent="1" source="code-downloader" target="dynamodb">
          <mxGeometry relative="1" as="geometry">
            <Array as="points">
              <mxPoint x="600" y="110" />
              <mxPoint x="600" y="40" />
              <mxPoint x="880" y="40" />
              <mxPoint x="880" y="190" />
            </Array>
          </mxGeometry>
        </mxCell>
      </root>
    </mxGraphModel>
  </diagram>
</mxfile>
